<svg width="106" height="40" xmlns="http://www.w3.org/2000/svg"><g fill="none" fill-rule="evenodd"><path d="M42.68 16.53l6.445 17.861c.985 2.73-1.038 5.61-3.94 5.61h-.097a4.189 4.189 0 01-4.067-3.19l-4.59-15.596-4.681 15.578a4.19 4.19 0 01-4.073 3.209c-2.896 0-4.919-2.87-3.945-5.598L30.11 16.55a6.677 6.677 0 0112.571-.02zM56.868.316c2.3 0 4.165 1.868 4.162 4.168l-.04 31.36a4.162 4.162 0 01-8.325-.011l.04-31.36A4.161 4.161 0 0156.869.317zM71.048 0a4.188 4.188 0 11.001 8.375 4.188 4.188 0 010-8.375zm0 11.06a4.188 4.188 0 014.189 4.189v20.533a4.188 4.188 0 01-8.375 0V15.249a4.188 4.188 0 014.187-4.188zm28.455.454c2.344-1.323 5.407-.053 6.132 2.536.22.784.173 1.645.18 2.452.009 1.18.01 2.359.018 3.538.014 2.19.143 4.408.05 6.598.032 1.233-.166 2.511-.467 3.704-1.266 5.013-5.466 8.796-10.613 9.424-5.104.623-10.226-1.811-12.67-6.4-2.055-3.857-1.655-8.2-1.631-12.403.008-1.445.026-2.89.032-4.334.007-1.367-.024-2.74.825-3.911 1.587-2.19 4.912-2.31 6.65-.238.973 1.16.997 2.555 1.012 3.972.03 3.029.022 6.059.068 9.088.026 1.731.172 3.791 1.773 4.845 1.458.96 3.81.831 5.086-.368 1.532-1.442 1.3-3.721 1.335-5.632.045-2.519.035-5.04.052-7.558.006-.763-.047-1.57.076-2.327a4.252 4.252 0 012.092-2.986z" fill="#22354C"/><path d="M21.7 12.117c2.896 0 4.919 2.87 3.945 5.598l-6.377 17.854a6.678 6.678 0 01-12.571.02L.253 17.729c-.986-2.73 1.037-5.61 3.939-5.61h.097a4.189 4.189 0 014.067 3.19l4.59 15.596 4.682-15.578a4.19 4.19 0 014.072-3.209z" fill="#4953CF"/></g></svg>